<svg id="eefb0cf8-d6ab-41ec-b19a-7a43c58e4897" data-name="Layer 1" xmlns="http://www.w3.org/2000/svg" xmlns:xlink="http://www.w3.org/1999/xlink" viewBox="0 0 306.33 75.7"><defs><linearGradient id="bbcb1c07-214f-4fc3-abee-b8090fa8f861" x1="20.47" y1="5.15" x2="20.47" y2="69.51" gradientUnits="userSpaceOnUse"><stop offset="0" stop-color="#f99f20"/><stop offset="1" stop-color="#f68d34"/></linearGradient></defs><title>fas-logo-lightbg-cmyk</title><path d="M6.13,50.86a11.76,11.76,0,0,0-.72,3.37A4,4,0,0,0,7,57.45a6.14,6.14,0,0,0,4,1.33c.24,0,.47,0,.7,0V52.81h5.51v5.83H40.41v6.7H17.26v4.17H11.75v-4.2a13.06,13.06,0,0,1-8.51-3.12A9.61,9.61,0,0,1,0,54.68a20.72,20.72,0,0,1,1-5.8Zm31.42-15.3A6.41,6.41,0,0,1,40,38.73a12.13,12.13,0,0,1,1,4.72,10.66,10.66,0,0,1-2.32,7.28,8.24,8.24,0,0,1-6.57,2.65,9.19,9.19,0,0,1-7.78-3.73Q21.46,45.91,21.46,39a11.66,11.66,0,0,1,.41-2.78c-3.38,0-5.06,2.13-5.06,6.4A14.13,14.13,0,0,0,18.07,49l-5.2,1.45a18.89,18.89,0,0,1-1.66-8.22q0-6.55,3-9.61t11.31-3h6.13c3.81,0,6.21-.76,7.19-2.3a3.59,3.59,0,0,1,1.78,1.85A7.23,7.23,0,0,1,41,31.41,3.71,3.71,0,0,1,39.88,34,5.45,5.45,0,0,1,37.55,35.56Zm-10.63.64a14.21,14.21,0,0,0-.34,2.57q0,7.92,5.19,7.92,3.86,0,3.85-4.47,0-6-6-6Zm11.65-11-5.33-2.38A10.6,10.6,0,0,0,35.62,16c0-2.61-.92-3.91-2.78-3.91a3.41,3.41,0,0,0-2.68,1.18,18.29,18.29,0,0,0-2.46,4.57q-3.07,7.42-8.62,7.42a6.76,6.76,0,0,1-5.79-2.84,12,12,0,0,1-2.08-7.25,18.26,18.26,0,0,1,2-8.41l5.19,1.93a9.15,9.15,0,0,0-1.87,6.1q0,3.51,2.78,3.51a2.49,2.49,0,0,0,2-1.15,23.72,23.72,0,0,0,2.37-4.93,12.66,12.66,0,0,1,3.6-5.43,8,8,0,0,1,5.11-1.66,7.51,7.51,0,0,1,6.28,3q2.3,3,2.29,8a18.21,18.21,0,0,1-.47,4.59A22.51,22.51,0,0,1,38.57,25.17Z" style="fill:url(#bbcb1c07-214f-4fc3-abee-b8090fa8f861)"/><text transform="translate(44.78 33.41)" style="font-size:38.962650299072266px;fill:#414042;font-family:TrebuchetMS, Trebuchet MS">församlings</text><text transform="translate(45.65 65.48)" style="font-size:38.962650299072266px;fill:#414042;font-family:TrebuchetMS, Trebuchet MS">administration</text><circle cx="302.17" cy="41.86" r="4.16" style="fill:#414042"/><circle cx="302.17" cy="41.86" r="3.32" style="fill:#fff"/><text transform="translate(300.35 43.66)" style="font-size:5.366179943084717px;fill:#414042;font-family:HelveticaNeue-Bold, Helvetica Neue;font-weight:700">R</text></svg>